name Run_500 02_newCOP3_v24.mot
datacolumns 19
datarows 12
range 1.15000000 1.16100000
endheader
                time	   R_ground_force_vx	   R_ground_force_vy	   R_ground_force_vz	   R_ground_force_px	   R_ground_force_py	   R_ground_force_pz	   L_ground_force_vx	   L_ground_force_vy	   L_ground_force_vz	   L_ground_force_px	   L_ground_force_py	   L_ground_force_pz	   R_ground_torque_x	   R_ground_torque_y	   R_ground_torque_z	   L_ground_torque_x	   L_ground_torque_y	   L_ground_torque_z	
          1.15000000	         -3.55554900	         25.42634600	        -16.05314300	          1.21217100	          0.00000000	         -0.30332300	          0.00000000	          0.00000000	          0.00000000	          0.00000000	          0.00000000	          0.00000000	         -0.00000000	          2.46469800	         -0.00000000	          0.00000000	          0.00000000	          0.00000000	
          1.15100000	         -4.66261900	         29.38137400	        -17.59706300	          1.21176500	          0.00000000	         -0.30647300	          0.00000000	          0.00000000	          0.00000000	          0.00000000	          0.00000000	          0.00000000	         -0.00000000	          2.86994900	         -0.00000000	          0.00000000	          0.00000000	          0.00000000	
          1.15200000	         -5.94975800	         33.97222100	        -19.23412300	          1.21107500	          0.00000000	         -0.30931400	          0.00000000	          0.00000000	          0.00000000	          0.00000000	          0.00000000	          0.00000000	         -0.00000000	          3.28385700	         -0.00000000	          0.00000000	          0.00000000	          0.00000000	
          1.15300000	         -7.43094100	         39.28488500	        -20.96394200	          1.21013000	          0.00000000	         -0.31184800	          0.00000000	          0.00000000	          0.00000000	          0.00000000	          0.00000000	          0.00000000	         -0.00000000	          3.70527800	         -0.00000000	          0.00000000	          0.00000000	          0.00000000	
          1.15400000	         -9.12082200	         45.41208300	        -22.78522500	          1.20897200	          0.00000000	         -0.31408500	          0.00000000	          0.00000000	          0.00000000	          0.00000000	          0.00000000	          0.00000000	         -0.00000000	          4.13300800	         -0.00000000	          0.00000000	          0.00000000	          0.00000000	
          1.15500000	        -11.03466400	         52.45276300	        -24.69566900	          1.20765300	          0.00000000	         -0.31604100	          0.00000000	          0.00000000	          0.00000000	          0.00000000	          0.00000000	          0.00000000	         -0.00000000	          4.56578400	         -0.00000000	          0.00000000	          0.00000000	          0.00000000	
          1.15600000	        -13.18815700	         60.51137200	        -26.69185800	          1.20622700	          0.00000000	         -0.31773600	          0.00000000	          0.00000000	          0.00000000	          0.00000000	          0.00000000	          0.00000000	         -0.00000000	          5.00229300	         -0.00000000	          0.00000000	          0.00000000	          0.00000000	
          1.15700000	        -15.59712900	         69.69686900	        -28.76916900	          1.20474300	          0.00000000	         -0.31919500	          0.00000000	          0.00000000	          0.00000000	          0.00000000	          0.00000000	          0.00000000	         -0.00000000	          5.44117500	         -0.00000000	          0.00000000	          0.00000000	          0.00000000	
          1.15800000	        -18.27714200	         80.12139900	        -30.92167700	          1.20324700	          0.00000000	         -0.32044100	          0.00000000	          0.00000000	          0.00000000	          0.00000000	          0.00000000	          0.00000000	         -0.00000000	          5.88103200	         -0.00000000	          0.00000000	          0.00000000	          0.00000000	
          1.15900000	        -21.24294500	         91.89861300	        -33.14207800	          1.20177600	          0.00000000	         -0.32150000	          0.00000000	          0.00000000	          0.00000000	          0.00000000	          0.00000000	          0.00000000	         -0.00000000	          6.32042800	         -0.00000000	          0.00000000	          0.00000000	          0.00000000	
          1.16000000	        -24.50782200	        105.14167800	        -35.42161600	          1.20036000	          0.00000000	         -0.32239400	          0.00000000	          0.00000000	          0.00000000	          0.00000000	          0.00000000	          0.00000000	         -0.00000000	          6.75790400	         -0.00000000	          0.00000000	          0.00000000	          0.00000000	
          1.16100000	        -28.08281100	        119.96090700	        -37.75003100	          1.19902100	          0.00000000	         -0.32314600	          0.00000000	          0.00000000	          0.00000000	          0.00000000	          0.00000000	          0.00000000	         -0.00000000	          7.19197800	         -0.00000000	          0.00000000	          0.00000000	          0.00000000	
